{
    "asset" : {
        "generator" : "Khronos glTF Blender I/O v3.3.32",
        "version" : "2.0"
    },
    "extensionsUsed" : [
        "KHR_materials_emissive_strength"
    ],
    "scene" : 0,
    "scenes" : [
        {
            "name" : "Scene",
            "nodes" : [
                0,
                1,
                2,
                3,
                4,
                5,
                6
            ]
        }
    ],
    "nodes" : [
        {
            "mesh" : 0,
            "name" : "Cube",
            "translation" : [
                0,
                1.2734819650650024,
                0
            ]
        },
        {
            "mesh" : 1,
            "name" : "Plane",
            "scale" : [
                5.46038293838501,
                5.46038293838501,
                5.46038293838501
            ],
            "translation" : [
                0,
                0.12127816677093506,
                0
            ]
        },
        {
            "mesh" : 2,
            "name" : "Cube.001",
            "translation" : [
                1.2706255912780762,
                2.1363282203674316,
                -3.5017783641815186
            ]
        },
        {
            "mesh" : 3,
            "name" : "Cube.002",
            "translation" : [
                3.342637062072754,
                1.2372891902923584,
                2.175793170928955
            ]
        },
        {
            "mesh" : 4,
            "name" : "Cube.003",
            "translation" : [
                4.146732330322266,
                1.0293701887130737,
                -2.8542304039001465
            ]
        },
        {
            "mesh" : 5,
            "name" : "Plane.001",
            "rotation" : [
                1,
                0,
                0,
                0
            ],
            "scale" : [
                -0.049571990966796875,
                -1,
                -1
            ],
            "translation" : [
                1.1076586246490479,
                2.383911371231079,
                1.448529839515686
            ]
        },
        {
            "mesh" : 6,
            "name" : "Text",
            "rotation" : [
                0,
                0.7071068286895752,
                0,
                0.7071068286895752
            ],
            "scale" : [
                0.5958380103111267,
                0.5958380103111267,
                0.5958380103111267
            ],
            "translation" : [
                4.18474817276001,
                0.8531805276870728,
                1.181447982788086
            ]
        }
    ],
    "materials" : [
        {
            "doubleSided" : true,
            "name" : "Material",
            "pbrMetallicRoughness" : {
                "baseColorFactor" : [
                    0.800000011920929,
                    0.800000011920929,
                    0.800000011920929,
                    1
                ],
                "metallicFactor" : 0,
                "roughnessFactor" : 0
            }
        },
        {
            "doubleSided" : true,
            "emissiveFactor" : [
                0.14394302666187286,
                1,
                0.1411105841398239
            ],
            "extensions" : {
                "KHR_materials_emissive_strength" : {
                    "emissiveStrength" : 16.69999885559082
                }
            },
            "name" : "Material.001",
            "pbrMetallicRoughness" : {
                "baseColorFactor" : [
                    0.800000011920929,
                    0.800000011920929,
                    0.800000011920929,
                    1
                ],
                "metallicFactor" : 0,
                "roughnessFactor" : 0.5
            }
        }
    ],
    "meshes" : [
        {
            "name" : "Cube",
            "primitives" : [
                {
                    "attributes" : {
                        "POSITION" : 0,
                        "NORMAL" : 1,
                        "TEXCOORD_0" : 2
                    },
                    "indices" : 3,
                    "material" : 0
                }
            ]
        },
        {
            "name" : "Plane",
            "primitives" : [
                {
                    "attributes" : {
                        "POSITION" : 4,
                        "NORMAL" : 5,
                        "TEXCOORD_0" : 6
                    },
                    "indices" : 7
                }
            ]
        },
        {
            "name" : "Cube.001",
            "primitives" : [
                {
                    "attributes" : {
                        "POSITION" : 8,
                        "NORMAL" : 9,
                        "TEXCOORD_0" : 10
                    },
                    "indices" : 3,
                    "material" : 0
                }
            ]
        },
        {
            "name" : "Cube.002",
            "primitives" : [
                {
                    "attributes" : {
                        "POSITION" : 11,
                        "NORMAL" : 12,
                        "TEXCOORD_0" : 13
                    },
                    "indices" : 3,
                    "material" : 0
                }
            ]
        },
        {
            "name" : "Cube.003",
            "primitives" : [
                {
                    "attributes" : {
                        "POSITION" : 14,
                        "NORMAL" : 15,
                        "TEXCOORD_0" : 16
                    },
                    "indices" : 3,
                    "material" : 0
                }
            ]
        },
        {
            "name" : "Plane.001",
            "primitives" : [
                {
                    "attributes" : {
                        "POSITION" : 17,
                        "NORMAL" : 18,
                        "TEXCOORD_0" : 19
                    },
                    "indices" : 20,
                    "material" : 1
                }
            ]
        },
        {
            "name" : "Text",
            "primitives" : [
                {
                    "attributes" : {
                        "POSITION" : 21,
                        "NORMAL" : 22,
                        "TEXCOORD_0" : 23
                    },
                    "indices" : 24,
                    "material" : 1
                }
            ]
        }
    ],
    "accessors" : [
        {
            "bufferView" : 0,
            "componentType" : 5126,
            "count" : 24,
            "max" : [
                1,
                1,
                1
            ],
            "min" : [
                -1,
                -1,
                -1
            ],
            "type" : "VEC3"
        },
        {
            "bufferView" : 1,
            "componentType" : 5126,
            "count" : 24,
            "type" : "VEC3"
        },
        {
            "bufferView" : 2,
            "componentType" : 5126,
            "count" : 24,
            "type" : "VEC2"
        },
        {
            "bufferView" : 3,
            "componentType" : 5123,
            "count" : 36,
            "type" : "SCALAR"
        },
        {
            "bufferView" : 4,
            "componentType" : 5126,
            "count" : 4,
            "max" : [
                1,
                0,
                1
            ],
            "min" : [
                -1,
                0,
                -1
            ],
            "type" : "VEC3"
        },
        {
            "bufferView" : 5,
            "componentType" : 5126,
            "count" : 4,
            "type" : "VEC3"
        },
        {
            "bufferView" : 6,
            "componentType" : 5126,
            "count" : 4,
            "type" : "VEC2"
        },
        {
            "bufferView" : 7,
            "componentType" : 5123,
            "count" : 6,
            "type" : "SCALAR"
        },
        {
            "bufferView" : 8,
            "componentType" : 5126,
            "count" : 24,
            "max" : [
                1,
                1,
                1
            ],
            "min" : [
                -1,
                -1,
                -1
            ],
            "type" : "VEC3"
        },
        {
            "bufferView" : 9,
            "componentType" : 5126,
            "count" : 24,
            "type" : "VEC3"
        },
        {
            "bufferView" : 10,
            "componentType" : 5126,
            "count" : 24,
            "type" : "VEC2"
        },
        {
            "bufferView" : 11,
            "componentType" : 5126,
            "count" : 24,
            "max" : [
                1,
                1,
                1
            ],
            "min" : [
                -1,
                -1,
                -1
            ],
            "type" : "VEC3"
        },
        {
            "bufferView" : 12,
            "componentType" : 5126,
            "count" : 24,
            "type" : "VEC3"
        },
        {
            "bufferView" : 13,
            "componentType" : 5126,
            "count" : 24,
            "type" : "VEC2"
        },
        {
            "bufferView" : 14,
            "componentType" : 5126,
            "count" : 24,
            "max" : [
                1,
                1,
                1
            ],
            "min" : [
                -1,
                -1,
                -1
            ],
            "type" : "VEC3"
        },
        {
            "bufferView" : 15,
            "componentType" : 5126,
            "count" : 24,
            "type" : "VEC3"
        },
        {
            "bufferView" : 16,
            "componentType" : 5126,
            "count" : 24,
            "type" : "VEC2"
        },
        {
            "bufferView" : 17,
            "componentType" : 5126,
            "count" : 28,
            "max" : [
                1,
                0.23466646671295166,
                1
            ],
            "min" : [
                -62.27476501464844,
                -1.1829367876052856,
                -2.7695116996765137
            ],
            "type" : "VEC3"
        },
        {
            "bufferView" : 18,
            "componentType" : 5126,
            "count" : 28,
            "type" : "VEC3"
        },
        {
            "bufferView" : 19,
            "componentType" : 5126,
            "count" : 28,
            "type" : "VEC2"
        },
        {
            "bufferView" : 20,
            "componentType" : 5123,
            "count" : 42,
            "type" : "SCALAR"
        },
        {
            "bufferView" : 21,
            "componentType" : 5126,
            "count" : 518,
            "max" : [
                4.730999946594238,
                0,
                0.23000000417232513
            ],
            "min" : [
                0,
                0,
                -0.6910000443458557
            ],
            "type" : "VEC3"
        },
        {
            "bufferView" : 22,
            "componentType" : 5126,
            "count" : 518,
            "type" : "VEC3"
        },
        {
            "bufferView" : 23,
            "componentType" : 5126,
            "count" : 518,
            "type" : "VEC2"
        },
        {
            "bufferView" : 24,
            "componentType" : 5123,
            "count" : 1143,
            "type" : "SCALAR"
        }
    ],
    "bufferViews" : [
        {
            "buffer" : 0,
            "byteLength" : 288,
            "byteOffset" : 0,
            "target" : 34962
        },
        {
            "buffer" : 0,
            "byteLength" : 288,
            "byteOffset" : 288,
            "target" : 34962
        },
        {
            "buffer" : 0,
            "byteLength" : 192,
            "byteOffset" : 576,
            "target" : 34962
        },
        {
            "buffer" : 0,
            "byteLength" : 72,
            "byteOffset" : 768,
            "target" : 34963
        },
        {
            "buffer" : 0,
            "byteLength" : 48,
            "byteOffset" : 840,
            "target" : 34962
        },
        {
            "buffer" : 0,
            "byteLength" : 48,
            "byteOffset" : 888,
            "target" : 34962
        },
        {
            "buffer" : 0,
            "byteLength" : 32,
            "byteOffset" : 936,
            "target" : 34962
        },
        {
            "buffer" : 0,
            "byteLength" : 12,
            "byteOffset" : 968,
            "target" : 34963
        },
        {
            "buffer" : 0,
            "byteLength" : 288,
            "byteOffset" : 980,
            "target" : 34962
        },
        {
            "buffer" : 0,
            "byteLength" : 288,
            "byteOffset" : 1268,
            "target" : 34962
        },
        {
            "buffer" : 0,
            "byteLength" : 192,
            "byteOffset" : 1556,
            "target" : 34962
        },
        {
            "buffer" : 0,
            "byteLength" : 288,
            "byteOffset" : 1748,
            "target" : 34962
        },
        {
            "buffer" : 0,
            "byteLength" : 288,
            "byteOffset" : 2036,
            "target" : 34962
        },
        {
            "buffer" : 0,
            "byteLength" : 192,
            "byteOffset" : 2324,
            "target" : 34962
        },
        {
            "buffer" : 0,
            "byteLength" : 288,
            "byteOffset" : 2516,
            "target" : 34962
        },
        {
            "buffer" : 0,
            "byteLength" : 288,
            "byteOffset" : 2804,
            "target" : 34962
        },
        {
            "buffer" : 0,
            "byteLength" : 192,
            "byteOffset" : 3092,
            "target" : 34962
        },
        {
            "buffer" : 0,
            "byteLength" : 336,
            "byteOffset" : 3284,
            "target" : 34962
        },
        {
            "buffer" : 0,
            "byteLength" : 336,
            "byteOffset" : 3620,
            "target" : 34962
        },
        {
            "buffer" : 0,
            "byteLength" : 224,
            "byteOffset" : 3956,
            "target" : 34962
        },
        {
            "buffer" : 0,
            "byteLength" : 84,
            "byteOffset" : 4180,
            "target" : 34963
        },
        {
            "buffer" : 0,
            "byteLength" : 6216,
            "byteOffset" : 4264,
            "target" : 34962
        },
        {
            "buffer" : 0,
            "byteLength" : 6216,
            "byteOffset" : 10480,
            "target" : 34962
        },
        {
            "buffer" : 0,
            "byteLength" : 4144,
            "byteOffset" : 16696,
            "target" : 34962
        },
        {
            "buffer" : 0,
            "byteLength" : 2286,
            "byteOffset" : 20840,
            "target" : 34963
        }
    ],
    "buffers" : [
        {
            "byteLength" : 23128,
            "uri" : "data:application/octet-stream;base64,"
        }
    ]
}
